<svg width="36" height="22" viewBox="0 0 36 22" fill="none" xmlns="http://www.w3.org/2000/svg">
<g clip-path="url(#clip0_117_304)">
<path d="M24.1981 2.50216C24.6268 2.02651 25.103 1.63411 25.5912 1.32494C26.4485 0.789841 27.3535 0.504456 28.2823 0.504456V8.26931C27.6035 5.91489 26.139 3.89341 24.1981 2.50216ZM35.76 21.9679H8.21861C3.69385 21.9679 0.0383301 18.3054 0.0383301 13.7987C0.0383301 9.48221 3.39617 5.93866 7.64707 5.64139V0.504456C8.59962 0.504456 9.54029 0.77795 10.4214 1.32494C10.9096 1.62222 11.3859 2.01462 11.8146 2.46648C13.5649 1.24171 15.6844 0.528238 17.9825 0.528238C17.9825 5.4868 16.1964 11.254 10.3857 11.2659H17.923C17.7086 10.3027 16.8275 9.58926 15.7797 9.57735H20.1615C19.1137 9.57735 18.2326 10.3027 18.0182 11.2778H25.0435C26.4485 11.2778 27.8417 11.5513 29.1515 12.0983C30.4494 12.6334 31.6401 13.4301 32.6284 14.417C33.6286 15.4159 34.4145 16.5931 34.9503 17.8892C35.4861 19.1735 35.76 20.5647 35.76 21.9679ZM12.279 5.78412C12.4576 6.24784 12.9339 6.77106 13.6007 7.15155C14.2675 7.5321 14.9581 7.68669 15.4463 7.61532C15.2677 7.15155 14.7914 6.62838 14.1246 6.24784C13.4578 5.86734 12.7671 5.71275 12.279 5.78412ZM22.3048 7.15155C21.638 7.5321 20.9474 7.68669 20.4592 7.61532C20.6378 7.15155 21.1141 6.62838 21.7809 6.24784C22.4477 5.86734 23.1384 5.71275 23.6266 5.78412C23.4598 6.24784 22.9716 6.77106 22.3048 7.15155Z" fill="#09090B"/>
</g>
<defs>
<clipPath id="clip0_117_304">
<rect width="36" height="22" fill="white"/>
</clipPath>
</defs>
</svg>
